<svg xmlns="http://www.w3.org/2000/svg" viewBox="0 0 64 64" role="img" aria-labelledby="t"><title id="t">IA aplicada</title><defs><linearGradient id="g" x1="0" y1="0" x2="1" y2="1"><stop stop-color="#7c4653"/><stop offset="1" stop-color="#c7a24a"/></linearGradient></defs><rect x="4" y="4" width="56" height="56" rx="17" fill="#171b18" stroke="#7d8b72"/><path d="M20 39c-5-2-7-8-4-12 1-2 3-3 5-3 1-6 8-9 13-6 4-4 12-1 12 5 5 1 7 8 3 12 2 5-3 10-8 9H24c-3 0-5-2-4-5Z" fill="none" stroke="url(#g)" stroke-width="3" stroke-linecap="round"/><circle cx="24" cy="31" r="2.5" fill="#c7a24a"/><circle cx="33" cy="25" r="2.5" fill="#b35c3d"/><circle cx="42" cy="32" r="2.5" fill="#7d8b72"/><circle cx="33" cy="39" r="2.5" fill="#6f7b83"/><path d="m26 30 5-4m4 0 5 5m-6 0-1 6m-7-4 5 5m4 0 5-4" stroke="#d6c5a1" stroke-width="1.7" stroke-linecap="round"/></svg>
