<svg xmlns="http://www.w3.org/2000/svg" viewBox="0 0 64 64" role="img" aria-labelledby="t"><title id="t">GitHub</title><circle cx="32" cy="32" r="28" fill="#181717"/><path fill="#fff" d="M32 13c-10.7 0-19.4 8.7-19.4 19.4 0 8.6 5.6 15.9 13.3 18.5 1 .2 1.3-.4 1.3-.9v-3.4c-5.4 1.2-6.5-2.3-6.5-2.3-.9-2.2-2.2-2.8-2.2-2.8-1.8-1.2.1-1.2.1-1.2 2 .1 3 2 3 2 1.8 3 4.7 2.2 5.8 1.7.1 3-.1 3.7-.8-4.3-.5-8.8-2.2-8.8-9.6 0-2.1.8-3.9 2-5.2-.2-.5-.9-2.5.2-5.1 0 0 1.6-.5 5.3 2a18.4 18.4 0 0 1 9.7-1.3c1.7 0 3.3.2 4.8.6 3.7-2.5 5.3-2 5.3-2 1.1 2.6.4 4.6.2 5.1 1.2 1.3 2 3 2 5.2 0 7.5-4.6 9.1-8.9 9.6.7.6 1.3 1.8 1.3 3.5V50c0 .5.3 1.1 1.3.9a19.4 19.4 0 0 0 13.3-18.5C51.4 21.7 42.7 13 32 13Z"/></svg>
