<svg xmlns="http://www.w3.org/2000/svg" width="1400" height="900" viewBox="0 0 1400 900">
  <defs>
    <linearGradient id="bg" x1="0" y1="0" x2="1" y2="1">
      <stop offset="0" stop-color="#060a14"/>
      <stop offset="1" stop-color="#121b3c"/>
    </linearGradient>
    <linearGradient id="neon" x1="0" y1="0" x2="1" y2="1">
      <stop offset="0" stop-color="#36d1ff"/>
      <stop offset="0.55" stop-color="#5c63ff"/>
      <stop offset="1" stop-color="#ff7a2f"/>
    </linearGradient>
    <filter id="glow"><feGaussianBlur stdDeviation="10" result="b"/><feMerge><feMergeNode in="b"/><feMergeNode in="SourceGraphic"/></feMerge></filter>
  </defs>
  <rect width="1400" height="900" fill="url(#bg)"/>
  <g opacity=".22" stroke="#42bfff">
    <path d="M0 200 H1400M0 450H1400M0 700H1400"/>
    <path d="M220 0V900M500 0V900M780 0V900M1060 0V900"/>
  </g>
  <g fill="none" stroke="url(#neon)" stroke-width="7" opacity=".9" filter="url(#glow)">
    <path d="M180 570 C350 300 520 700 700 420 C860 170 1050 630 1230 330"/>
    <path d="M240 270 C440 510 570 170 770 540 C940 780 1110 470 1260 620" opacity=".55"/>
  </g>
  <g fill="#0d1630" stroke="#57cbff" stroke-width="5" filter="url(#glow)">
    <circle cx="180" cy="570" r="44"/><circle cx="350" cy="430" r="44"/><circle cx="520" cy="560" r="44"/>
    <circle cx="700" cy="420" r="62"/><circle cx="870" cy="290" r="44"/><circle cx="1045" cy="500" r="44"/><circle cx="1230" cy="330" r="44"/>
  </g>
  <circle cx="700" cy="420" r="165" fill="#090f22" stroke="url(#neon)" stroke-width="8" filter="url(#glow)"/>
  <text x="700" y="395" text-anchor="middle" fill="#fff" font-family="Arial, sans-serif" font-size="96" font-weight="800">BASE</text>
  <text x="700" y="490" text-anchor="middle" fill="#65d7ff" font-family="Arial, sans-serif" font-size="96" font-weight="800">LAB</text>
  <text x="700" y="580" text-anchor="middle" fill="#cbd7ff" font-family="Arial, sans-serif" font-size="30" letter-spacing="8">FATEC • ESTUDOS • COMUNIDADE</text>
</svg>
