<svg xmlns="http://www.w3.org/2000/svg" width="1400" height="900" viewBox="0 0 1400 900" role="img" aria-labelledby="t d">
  <title id="t">Power BI Portfolio</title>
  <desc id="d">Painel abstrato com indicadores, gráficos e fluxo de dados</desc>
  <defs>
    <linearGradient id="bg" x1="0" y1="0" x2="1" y2="1">
      <stop offset="0" stop-color="#111512"/>
      <stop offset="1" stop-color="#24211b"/>
    </linearGradient>
    <linearGradient id="gold" x1="0" y1="0" x2="1" y2="0">
      <stop offset="0" stop-color="#c7a24a"/>
      <stop offset="1" stop-color="#b35c3d"/>
    </linearGradient>
    <filter id="glow"><feGaussianBlur stdDeviation="7" result="b"/><feMerge><feMergeNode in="b"/><feMergeNode in="SourceGraphic"/></feMerge></filter>
  </defs>
  <rect width="1400" height="900" rx="48" fill="url(#bg)"/>
  <g opacity=".22" stroke="#7d8b72" stroke-width="2">
    <path d="M0 170H1400M0 340H1400M0 510H1400M0 680H1400"/>
    <path d="M200 0V900M400 0V900M600 0V900M800 0V900M1000 0V900M1200 0V900"/>
  </g>
  <rect x="95" y="90" width="1210" height="720" rx="38" fill="#171b18" stroke="#343a35" stroke-width="3"/>
  <circle cx="145" cy="137" r="9" fill="#b35c3d"/><circle cx="175" cy="137" r="9" fill="#c7a24a"/><circle cx="205" cy="137" r="9" fill="#7d8b72"/>
  <rect x="140" y="205" width="320" height="240" rx="24" fill="#0e1110" stroke="#343a35"/>
  <text x="175" y="255" fill="#f1ece2" font-size="30" font-family="Arial" font-weight="700">KPIs</text>
  <text x="175" y="320" fill="#c7a24a" font-size="70" font-family="Arial" font-weight="800">+24%</text>
  <text x="175" y="370" fill="#aaa59a" font-size="24" font-family="Arial">crescimento analisado</text>
  <rect x="510" y="205" width="745" height="240" rx="24" fill="#0e1110" stroke="#343a35"/>
  <path d="M565 382C650 350 680 260 755 310S895 398 980 300s145-45 220-18" fill="none" stroke="url(#gold)" stroke-width="13" stroke-linecap="round" filter="url(#glow)"/>
  <g fill="#c7a24a"><circle cx="565" cy="382" r="10"/><circle cx="755" cy="310" r="10"/><circle cx="980" cy="300" r="10"/><circle cx="1200" cy="282" r="10"/></g>
  <rect x="140" y="495" width="540" height="245" rx="24" fill="#0e1110" stroke="#343a35"/>
  <g transform="translate(185 545)"><rect width="55" height="135" rx="10" fill="#6f7b83"/><rect x="85" y="65" width="55" height="70" rx="10" fill="#7d8b72"/><rect x="170" y="20" width="55" height="115" rx="10" fill="#c7a24a"/><rect x="255" y="88" width="55" height="47" rx="10" fill="#7c4653"/><rect x="340" y="42" width="55" height="93" rx="10" fill="#b35c3d"/></g>
  <rect x="730" y="495" width="525" height="245" rx="24" fill="#0e1110" stroke="#343a35"/>
  <circle cx="870" cy="620" r="82" fill="none" stroke="#343a35" stroke-width="34"/><path d="M870 538a82 82 0 0 1 72 121" fill="none" stroke="#c7a24a" stroke-width="34" stroke-linecap="round"/><path d="M942 659a82 82 0 0 1-107 31" fill="none" stroke="#7d8b72" stroke-width="34" stroke-linecap="round"/>
  <g fill="#aaa59a" font-family="Arial" font-size="22"><text x="1010" y="570">DADOS</text><text x="1010" y="620">CONTEXTO</text><text x="1010" y="670">DECISÃO</text></g>
</svg>
